<mxfile host="app.diagrams.net" modified="2023-12-23T13:44:49.693Z" agent="Mozilla/5.0 (Windows NT 10.0; Win64; x64) AppleWebKit/537.36 (KHTML, like Gecko) Chrome/120.0.0.0 Safari/537.36" etag="vZjGfuPoO7xxfMsccd2R" version="22.1.11" type="device">
  <diagram name="Página-1" id="Xh8kTa7m59jnwXStFHdR">
    <mxGraphModel dx="1366" dy="1904" grid="1" gridSize="10" guides="1" tooltips="1" connect="1" arrows="1" fold="1" page="1" pageScale="1" pageWidth="827" pageHeight="1169" math="0" shadow="0">
      <root>
        <mxCell id="0" />
        <mxCell id="1" parent="0" />
        <mxCell id="Wg8CyrWkPPEZr9SP2rn6-4" value="" style="edgeStyle=orthogonalEdgeStyle;rounded=0;orthogonalLoop=1;jettySize=auto;html=1;" edge="1" parent="1" source="Wg8CyrWkPPEZr9SP2rn6-1" target="Wg8CyrWkPPEZr9SP2rn6-3">
          <mxGeometry relative="1" as="geometry" />
        </mxCell>
        <mxCell id="Wg8CyrWkPPEZr9SP2rn6-28" value="" style="edgeStyle=orthogonalEdgeStyle;rounded=0;orthogonalLoop=1;jettySize=auto;html=1;" edge="1" parent="1" source="Wg8CyrWkPPEZr9SP2rn6-1" target="Wg8CyrWkPPEZr9SP2rn6-27">
          <mxGeometry relative="1" as="geometry" />
        </mxCell>
        <mxCell id="Wg8CyrWkPPEZr9SP2rn6-1" value="&lt;font style=&quot;vertical-align: inherit;&quot;&gt;&lt;font style=&quot;vertical-align: inherit;&quot;&gt;&lt;font style=&quot;vertical-align: inherit;&quot;&gt;&lt;font style=&quot;vertical-align: inherit;&quot;&gt;ANÁLISE DE REQUISITOS&lt;/font&gt;&lt;/font&gt;&lt;/font&gt;&lt;/font&gt;" style="ellipse;whiteSpace=wrap;html=1;" vertex="1" parent="1">
          <mxGeometry x="362.5" y="300" width="110" height="80" as="geometry" />
        </mxCell>
        <mxCell id="Wg8CyrWkPPEZr9SP2rn6-3" value="&lt;font style=&quot;vertical-align: inherit;&quot;&gt;&lt;font style=&quot;vertical-align: inherit;&quot;&gt;ORGANIZAÇÃO DE UM DESENVOLVIMENTO&lt;/font&gt;&lt;/font&gt;" style="ellipse;whiteSpace=wrap;html=1;" vertex="1" parent="1">
          <mxGeometry x="340" y="170" width="155" height="90" as="geometry" />
        </mxCell>
        <mxCell id="Wg8CyrWkPPEZr9SP2rn6-9" value="" style="edgeStyle=orthogonalEdgeStyle;rounded=0;orthogonalLoop=1;jettySize=auto;html=1;" edge="1" parent="1" source="Wg8CyrWkPPEZr9SP2rn6-5" target="Wg8CyrWkPPEZr9SP2rn6-8">
          <mxGeometry relative="1" as="geometry" />
        </mxCell>
        <mxCell id="Wg8CyrWkPPEZr9SP2rn6-5" value="&lt;font style=&quot;vertical-align: inherit;&quot;&gt;&lt;font style=&quot;vertical-align: inherit;&quot;&gt;STAKEHOLDERS&lt;/font&gt;&lt;/font&gt;" style="ellipse;whiteSpace=wrap;html=1;" vertex="1" parent="1">
          <mxGeometry x="150" y="45" width="100" height="50" as="geometry" />
        </mxCell>
        <mxCell id="Wg8CyrWkPPEZr9SP2rn6-7" value="" style="endArrow=none;html=1;rounded=0;entryX=0.026;entryY=0.411;entryDx=0;entryDy=0;entryPerimeter=0;" edge="1" parent="1" source="Wg8CyrWkPPEZr9SP2rn6-5" target="Wg8CyrWkPPEZr9SP2rn6-3">
          <mxGeometry width="50" height="50" relative="1" as="geometry">
            <mxPoint x="230" y="230" as="sourcePoint" />
            <mxPoint x="350" y="210" as="targetPoint" />
          </mxGeometry>
        </mxCell>
        <mxCell id="Wg8CyrWkPPEZr9SP2rn6-8" value="&lt;font style=&quot;vertical-align: inherit;&quot;&gt;&lt;font style=&quot;vertical-align: inherit;&quot;&gt;identificar todas as partes interessadas envolvidas no projeto, como usuários finais, clientes, gerentes de projeto, entre outros.&lt;/font&gt;&lt;/font&gt;" style="ellipse;whiteSpace=wrap;html=1;" vertex="1" parent="1">
          <mxGeometry x="115" y="120" width="170" height="110" as="geometry" />
        </mxCell>
        <mxCell id="Wg8CyrWkPPEZr9SP2rn6-13" value="" style="edgeStyle=orthogonalEdgeStyle;rounded=0;orthogonalLoop=1;jettySize=auto;html=1;" edge="1" parent="1" source="Wg8CyrWkPPEZr9SP2rn6-10" target="Wg8CyrWkPPEZr9SP2rn6-12">
          <mxGeometry relative="1" as="geometry" />
        </mxCell>
        <mxCell id="Wg8CyrWkPPEZr9SP2rn6-10" value="&lt;font style=&quot;vertical-align: inherit;&quot;&gt;&lt;font style=&quot;vertical-align: inherit;&quot;&gt;&lt;font style=&quot;vertical-align: inherit;&quot;&gt;&lt;font style=&quot;vertical-align: inherit;&quot;&gt;LEVANTAMENTO&lt;/font&gt;&lt;/font&gt;&lt;/font&gt;&lt;/font&gt;" style="ellipse;whiteSpace=wrap;html=1;" vertex="1" parent="1">
          <mxGeometry x="80" y="270" width="117.5" height="40" as="geometry" />
        </mxCell>
        <mxCell id="Wg8CyrWkPPEZr9SP2rn6-11" value="" style="endArrow=none;html=1;rounded=0;entryX=1;entryY=0;entryDx=0;entryDy=0;" edge="1" parent="1" source="Wg8CyrWkPPEZr9SP2rn6-3" target="Wg8CyrWkPPEZr9SP2rn6-10">
          <mxGeometry width="50" height="50" relative="1" as="geometry">
            <mxPoint x="550" y="350" as="sourcePoint" />
            <mxPoint x="280" y="70" as="targetPoint" />
          </mxGeometry>
        </mxCell>
        <mxCell id="Wg8CyrWkPPEZr9SP2rn6-12" value="&lt;font style=&quot;vertical-align: inherit;&quot;&gt;&lt;font style=&quot;vertical-align: inherit;&quot;&gt;Coletar informações sobre as necessidades e expectativas dos stakeholders. &lt;/font&gt;&lt;font style=&quot;vertical-align: inherit;&quot;&gt;Isso pode envolver entrevistas, workshops, questionários e outras técnicas de coleta de dados.&lt;/font&gt;&lt;/font&gt;" style="ellipse;whiteSpace=wrap;html=1;" vertex="1" parent="1">
          <mxGeometry x="22.5" y="330" width="232.5" height="110" as="geometry" />
        </mxCell>
        <mxCell id="Wg8CyrWkPPEZr9SP2rn6-17" value="" style="edgeStyle=orthogonalEdgeStyle;rounded=0;orthogonalLoop=1;jettySize=auto;html=1;" edge="1" parent="1" source="Wg8CyrWkPPEZr9SP2rn6-14" target="Wg8CyrWkPPEZr9SP2rn6-16">
          <mxGeometry relative="1" as="geometry" />
        </mxCell>
        <mxCell id="Wg8CyrWkPPEZr9SP2rn6-14" value="&lt;font style=&quot;vertical-align: inherit;&quot;&gt;&lt;font style=&quot;vertical-align: inherit;&quot;&gt;DOCUMENTAÇÃO&lt;/font&gt;&lt;/font&gt;" style="ellipse;whiteSpace=wrap;html=1;" vertex="1" parent="1">
          <mxGeometry x="357.5" y="90" width="120" height="50" as="geometry" />
        </mxCell>
        <mxCell id="Wg8CyrWkPPEZr9SP2rn6-15" value="" style="endArrow=none;html=1;rounded=0;entryX=0.5;entryY=1;entryDx=0;entryDy=0;exitX=0.5;exitY=0;exitDx=0;exitDy=0;" edge="1" parent="1" source="Wg8CyrWkPPEZr9SP2rn6-3" target="Wg8CyrWkPPEZr9SP2rn6-14">
          <mxGeometry width="50" height="50" relative="1" as="geometry">
            <mxPoint x="340" y="400" as="sourcePoint" />
            <mxPoint x="390" y="350" as="targetPoint" />
          </mxGeometry>
        </mxCell>
        <mxCell id="Wg8CyrWkPPEZr9SP2rn6-16" value="&lt;font style=&quot;vertical-align: inherit;&quot;&gt;&lt;font style=&quot;vertical-align: inherit;&quot;&gt;Registrar e documentar os requisitos de forma clara e compreensível. &lt;/font&gt;&lt;font style=&quot;vertical-align: inherit;&quot;&gt;Isso pode incluir requisitos funcionais (o que o sistema deve fazer) e requisitos não funcionais (como o sistema deve realizar suas funções).&lt;/font&gt;&lt;/font&gt;" style="ellipse;whiteSpace=wrap;html=1;" vertex="1" parent="1">
          <mxGeometry x="283.5" y="-60" width="268" height="100" as="geometry" />
        </mxCell>
        <mxCell id="Wg8CyrWkPPEZr9SP2rn6-21" value="" style="edgeStyle=orthogonalEdgeStyle;rounded=0;orthogonalLoop=1;jettySize=auto;html=1;" edge="1" parent="1" source="Wg8CyrWkPPEZr9SP2rn6-18" target="Wg8CyrWkPPEZr9SP2rn6-20">
          <mxGeometry relative="1" as="geometry" />
        </mxCell>
        <mxCell id="Wg8CyrWkPPEZr9SP2rn6-18" value="&lt;font style=&quot;vertical-align: inherit;&quot;&gt;&lt;font style=&quot;vertical-align: inherit;&quot;&gt;VALIDAÇÃO&lt;/font&gt;&lt;/font&gt;" style="ellipse;whiteSpace=wrap;html=1;" vertex="1" parent="1">
          <mxGeometry x="602.5" y="40" width="90" height="40" as="geometry" />
        </mxCell>
        <mxCell id="Wg8CyrWkPPEZr9SP2rn6-19" value="" style="endArrow=none;html=1;rounded=0;entryX=0;entryY=1;entryDx=0;entryDy=0;" edge="1" parent="1" source="Wg8CyrWkPPEZr9SP2rn6-3" target="Wg8CyrWkPPEZr9SP2rn6-18">
          <mxGeometry width="50" height="50" relative="1" as="geometry">
            <mxPoint x="420" y="200" as="sourcePoint" />
            <mxPoint x="470" y="150" as="targetPoint" />
          </mxGeometry>
        </mxCell>
        <mxCell id="Wg8CyrWkPPEZr9SP2rn6-20" value="&lt;font style=&quot;vertical-align: inherit;&quot;&gt;&lt;font style=&quot;vertical-align: inherit;&quot;&gt;Verifique se os requisitos documentados são consistentes, completos, compreensíveis e atendem às expectativas das partes interessadas. &lt;/font&gt;&lt;font style=&quot;vertical-align: inherit;&quot;&gt;Isso muitas vezes envolve revisões e discussões com as partes interessadas.&lt;/font&gt;&lt;/font&gt;" style="ellipse;whiteSpace=wrap;html=1;" vertex="1" parent="1">
          <mxGeometry x="542.5" y="112.5" width="210" height="125" as="geometry" />
        </mxCell>
        <mxCell id="Wg8CyrWkPPEZr9SP2rn6-26" value="" style="edgeStyle=orthogonalEdgeStyle;rounded=0;orthogonalLoop=1;jettySize=auto;html=1;" edge="1" parent="1" source="Wg8CyrWkPPEZr9SP2rn6-22" target="Wg8CyrWkPPEZr9SP2rn6-25">
          <mxGeometry relative="1" as="geometry" />
        </mxCell>
        <mxCell id="Wg8CyrWkPPEZr9SP2rn6-22" value="GESTÃO DE MUDANÇAS" style="ellipse;whiteSpace=wrap;html=1;" vertex="1" parent="1">
          <mxGeometry x="630" y="250" width="165" height="50" as="geometry" />
        </mxCell>
        <mxCell id="Wg8CyrWkPPEZr9SP2rn6-24" value="" style="endArrow=none;html=1;rounded=0;exitX=0.916;exitY=0.789;exitDx=0;exitDy=0;exitPerimeter=0;" edge="1" parent="1" source="Wg8CyrWkPPEZr9SP2rn6-3" target="Wg8CyrWkPPEZr9SP2rn6-22">
          <mxGeometry width="50" height="50" relative="1" as="geometry">
            <mxPoint x="650" y="260" as="sourcePoint" />
            <mxPoint x="700" y="210" as="targetPoint" />
          </mxGeometry>
        </mxCell>
        <mxCell id="Wg8CyrWkPPEZr9SP2rn6-25" value="Gerenciar alterações nos requisitos ao longo do tempo. À medida que o projeto progride, podem surgir novas informações ou necessidades que exigem ajustes nos requisitos iniciais." style="ellipse;whiteSpace=wrap;html=1;" vertex="1" parent="1">
          <mxGeometry x="617.5" y="330" width="190" height="130" as="geometry" />
        </mxCell>
        <mxCell id="Wg8CyrWkPPEZr9SP2rn6-27" value="A análise de requisitos é essencial no desenvolvimento de software e projetos de engenharia, buscando compreender, documentar e verificar as necessidades dos usuários. Garante clareza nas funcionalidades do sistema, minimizando mal-entendidos e reduzindo erros e retrabalho durante o projeto." style="ellipse;whiteSpace=wrap;html=1;" vertex="1" parent="1">
          <mxGeometry x="145" y="450" width="350" height="110" as="geometry" />
        </mxCell>
        <mxCell id="Wg8CyrWkPPEZr9SP2rn6-29" value="A análise de requisitos é essencial no desenvolvimento, garantindo entendimento preciso das necessidades, evitando erros e retrabalho. Assegura satisfação do cliente, economia de recursos e facilita a comunicação. Fundamental para o sucesso do projeto." style="ellipse;whiteSpace=wrap;html=1;" vertex="1" parent="1">
          <mxGeometry x="657.5" y="510" width="282.5" height="130" as="geometry" />
        </mxCell>
        <mxCell id="Wg8CyrWkPPEZr9SP2rn6-30" value="" style="endArrow=none;html=1;rounded=0;exitX=1;exitY=1;exitDx=0;exitDy=0;" edge="1" parent="1" source="Wg8CyrWkPPEZr9SP2rn6-1" target="Wg8CyrWkPPEZr9SP2rn6-29">
          <mxGeometry width="50" height="50" relative="1" as="geometry">
            <mxPoint x="440" y="370" as="sourcePoint" />
            <mxPoint x="570" y="280" as="targetPoint" />
          </mxGeometry>
        </mxCell>
        <mxCell id="Wg8CyrWkPPEZr9SP2rn6-31" value="" style="endArrow=none;html=1;rounded=0;exitX=0.5;exitY=0;exitDx=0;exitDy=0;" edge="1" parent="1" source="Wg8CyrWkPPEZr9SP2rn6-29" target="Wg8CyrWkPPEZr9SP2rn6-32">
          <mxGeometry width="50" height="50" relative="1" as="geometry">
            <mxPoint x="840" y="210" as="sourcePoint" />
            <mxPoint x="980" y="260" as="targetPoint" />
          </mxGeometry>
        </mxCell>
        <mxCell id="Wg8CyrWkPPEZr9SP2rn6-32" value="REQUISITOS" style="ellipse;whiteSpace=wrap;html=1;" vertex="1" parent="1">
          <mxGeometry x="870" y="360" width="120" height="80" as="geometry" />
        </mxCell>
        <mxCell id="Wg8CyrWkPPEZr9SP2rn6-39" value="" style="edgeStyle=orthogonalEdgeStyle;rounded=0;orthogonalLoop=1;jettySize=auto;html=1;" edge="1" parent="1" source="Wg8CyrWkPPEZr9SP2rn6-33" target="Wg8CyrWkPPEZr9SP2rn6-36">
          <mxGeometry relative="1" as="geometry" />
        </mxCell>
        <mxCell id="Wg8CyrWkPPEZr9SP2rn6-33" value="FUNCIONAIS" style="ellipse;whiteSpace=wrap;html=1;" vertex="1" parent="1">
          <mxGeometry x="870" y="290" width="120" height="50" as="geometry" />
        </mxCell>
        <mxCell id="Wg8CyrWkPPEZr9SP2rn6-34" value="" style="endArrow=none;html=1;rounded=0;entryX=0.5;entryY=1;entryDx=0;entryDy=0;" edge="1" parent="1" source="Wg8CyrWkPPEZr9SP2rn6-32" target="Wg8CyrWkPPEZr9SP2rn6-33">
          <mxGeometry width="50" height="50" relative="1" as="geometry">
            <mxPoint x="840" y="210" as="sourcePoint" />
            <mxPoint x="890" y="160" as="targetPoint" />
          </mxGeometry>
        </mxCell>
        <mxCell id="Wg8CyrWkPPEZr9SP2rn6-36" value="Requisitos funcionais são as funcionalidades específicas que um sistema deve ter para atender às necessidades dos usuários." style="ellipse;whiteSpace=wrap;html=1;" vertex="1" parent="1">
          <mxGeometry x="823.5" y="180" width="213" height="70" as="geometry" />
        </mxCell>
        <mxCell id="Wg8CyrWkPPEZr9SP2rn6-41" value="" style="edgeStyle=orthogonalEdgeStyle;rounded=0;orthogonalLoop=1;jettySize=auto;html=1;" edge="1" parent="1" source="Wg8CyrWkPPEZr9SP2rn6-37" target="Wg8CyrWkPPEZr9SP2rn6-40">
          <mxGeometry relative="1" as="geometry" />
        </mxCell>
        <mxCell id="Wg8CyrWkPPEZr9SP2rn6-37" value="NÃO FUNCIONAIS" style="ellipse;whiteSpace=wrap;html=1;" vertex="1" parent="1">
          <mxGeometry x="1030" y="375" width="120" height="50" as="geometry" />
        </mxCell>
        <mxCell id="Wg8CyrWkPPEZr9SP2rn6-38" value="" style="endArrow=none;html=1;rounded=0;entryX=0;entryY=0.5;entryDx=0;entryDy=0;exitX=1;exitY=0.5;exitDx=0;exitDy=0;" edge="1" parent="1" source="Wg8CyrWkPPEZr9SP2rn6-32" target="Wg8CyrWkPPEZr9SP2rn6-37">
          <mxGeometry width="50" height="50" relative="1" as="geometry">
            <mxPoint x="840" y="210" as="sourcePoint" />
            <mxPoint x="890" y="160" as="targetPoint" />
          </mxGeometry>
        </mxCell>
        <mxCell id="Wg8CyrWkPPEZr9SP2rn6-40" value="Requisitos não funcionais referem-se a critérios de qualidade e desempenho do sistema, como segurança, usabilidade e confiabilidade, que não se relacionam diretamente a funcionalidades específicas. Eles definem as condições sob as quais o sistema deve operar, garantindo padrões de excelência, mas não detalham ações específicas do sistema." style="ellipse;whiteSpace=wrap;html=1;" vertex="1" parent="1">
          <mxGeometry x="900" y="10" width="380" height="170" as="geometry" />
        </mxCell>
      </root>
    </mxGraphModel>
  </diagram>
</mxfile>
